<svg xmlns="http://www.w3.org/2000/svg" width="1200" height="630" viewBox="0 0 1200 630" fill="none">
  <defs>
    <linearGradient id="bg" x1="0" y1="0" x2="1" y2="1">
      <stop offset="0" stop-color="#faf6f0"/>
      <stop offset="1" stop-color="#efe6d9"/>
    </linearGradient>
    <linearGradient id="accent" x1="0" y1="0" x2="1" y2="0">
      <stop offset="0" stop-color="#c8431a"/>
      <stop offset="1" stop-color="#ee6b2d"/>
    </linearGradient>
  </defs>

  <rect width="1200" height="630" fill="url(#bg)"/>
  <rect x="0" y="0" width="1200" height="10" fill="url(#accent)"/>

  <g transform="translate(80,80)">
    <!-- Billet H mark -->
    <rect width="76" height="76" rx="18" fill="#1c1714"/>
    <rect x="19" y="14" width="11" height="48" rx="3" fill="#f4efe7"/>
    <rect x="46" y="14" width="11" height="48" rx="3" fill="#f4efe7"/>
    <rect x="19" y="32" width="38" height="12" rx="3" fill="#c8431a"/>
    <circle cx="62" cy="29" r="2.4" fill="#ee6b2d"/>
    <circle cx="66" cy="35" r="1.6" fill="#ee6b2d"/>
  </g>
  <text x="176" y="134" font-family="'Bricolage Grotesque', system-ui, -apple-system, 'Segoe UI', Roboto, Helvetica, Arial, sans-serif"
    font-size="50" font-weight="800"><tspan fill="#1c1714">Hour</tspan><tspan fill="#c8431a">smith</tspan></text>

  <text x="80" y="290" font-family="'Bricolage Grotesque', system-ui, -apple-system, 'Segoe UI', Roboto, Helvetica, Arial, sans-serif"
    font-size="48" font-weight="800" fill="#1c1714">Chase missing Jira</text>
  <text x="80" y="346" font-family="'Bricolage Grotesque', system-ui, -apple-system, 'Segoe UI', Roboto, Helvetica, Arial, sans-serif"
    font-size="48" font-weight="800" fill="url(#accent)">worklogs before</text>
  <text x="80" y="402" font-family="'Bricolage Grotesque', system-ui, -apple-system, 'Segoe UI', Roboto, Helvetica, Arial, sans-serif"
    font-size="48" font-weight="800" fill="url(#accent)">invoice day.</text>

  <text x="82" y="456" font-family="'Hanken Grotesk', system-ui, -apple-system, 'Segoe UI', Roboto, Helvetica, Arial, sans-serif"
    font-size="26" font-weight="500" fill="#574d43">A team-lead&#39;s dashboard.</text>
  <text x="82" y="492" font-family="'Hanken Grotesk', system-ui, -apple-system, 'Segoe UI', Roboto, Helvetica, Arial, sans-serif"
    font-size="26" font-weight="500" fill="#574d43">Browser-only &#8212; your data never leaves.</text>

  <g transform="translate(80,512)">
    <rect width="232" height="54" rx="27" fill="#1c1714"/>
    <text x="116" y="36" text-anchor="middle" font-family="'Hanken Grotesk', system-ui, -apple-system, 'Segoe UI', Roboto, Helvetica, Arial, sans-serif"
      font-size="25" font-weight="600" fill="#f4efe7">hoursmith.io</text>
  </g>

  <g>
    <text x="720" y="176" font-family="'Hanken Grotesk', system-ui, -apple-system, 'Segoe UI', Roboto, Helvetica, Arial, sans-serif"
      font-size="22" font-weight="600" fill="#938778">Logged hours, at a glance</text>
    <rect x="720" y="196" width="40" height="40" rx="5" fill="#e89e72"/>
      <rect x="720" y="247" width="40" height="40" rx="5" fill="#e89e72"/>
      <rect x="720" y="298" width="40" height="40" rx="5" fill="#d4622f"/>
      <rect x="720" y="349" width="40" height="40" rx="5" fill="#f0c8ad"/>
      <rect x="720" y="400" width="40" height="40" rx="5" fill="#d4622f"/>
      <rect x="720" y="451" width="40" height="40" rx="5" fill="#d4622f"/>
      <rect x="720" y="502" width="40" height="40" rx="5" fill="#ece3d6"/>
      <rect x="771" y="196" width="40" height="40" rx="5" fill="#ece3d6"/>
      <rect x="771" y="247" width="40" height="40" rx="5" fill="#f0c8ad"/>
      <rect x="771" y="298" width="40" height="40" rx="5" fill="#c8431a"/>
      <rect x="771" y="349" width="40" height="40" rx="5" fill="#e89e72"/>
      <rect x="771" y="400" width="40" height="40" rx="5" fill="#f0c8ad"/>
      <rect x="771" y="451" width="40" height="40" rx="5" fill="#e89e72"/>
      <rect x="771" y="502" width="40" height="40" rx="5" fill="#c8431a"/>
      <rect x="822" y="196" width="40" height="40" rx="5" fill="#d4622f"/>
      <rect x="822" y="247" width="40" height="40" rx="5" fill="#d4622f"/>
      <rect x="822" y="298" width="40" height="40" rx="5" fill="#f0c8ad"/>
      <rect x="822" y="349" width="40" height="40" rx="5" fill="#c8431a"/>
      <rect x="822" y="400" width="40" height="40" rx="5" fill="#f0c8ad"/>
      <rect x="822" y="451" width="40" height="40" rx="5" fill="#ece3d6"/>
      <rect x="822" y="502" width="40" height="40" rx="5" fill="#ece3d6"/>
      <rect x="873" y="196" width="40" height="40" rx="5" fill="#ece3d6"/>
      <rect x="873" y="247" width="40" height="40" rx="5" fill="#d4622f"/>
      <rect x="873" y="298" width="40" height="40" rx="5" fill="#f0c8ad"/>
      <rect x="873" y="349" width="40" height="40" rx="5" fill="#c8431a"/>
      <rect x="873" y="400" width="40" height="40" rx="5" fill="#d4622f"/>
      <rect x="873" y="451" width="40" height="40" rx="5" fill="#e89e72"/>
      <rect x="873" y="502" width="40" height="40" rx="5" fill="#f0c8ad"/>
      <rect x="924" y="196" width="40" height="40" rx="5" fill="#d4622f"/>
      <rect x="924" y="247" width="40" height="40" rx="5" fill="#d4622f"/>
      <rect x="924" y="298" width="40" height="40" rx="5" fill="#d4622f"/>
      <rect x="924" y="349" width="40" height="40" rx="5" fill="#e89e72"/>
      <rect x="924" y="400" width="40" height="40" rx="5" fill="#f0c8ad"/>
      <rect x="924" y="451" width="40" height="40" rx="5" fill="#d4622f"/>
      <rect x="924" y="502" width="40" height="40" rx="5" fill="#d4622f"/>
      <rect x="975" y="196" width="40" height="40" rx="5" fill="#ece3d6"/>
      <rect x="975" y="247" width="40" height="40" rx="5" fill="#ece3d6"/>
      <rect x="975" y="298" width="40" height="40" rx="5" fill="#e89e72"/>
      <rect x="975" y="349" width="40" height="40" rx="5" fill="#f0c8ad"/>
      <rect x="975" y="400" width="40" height="40" rx="5" fill="#ece3d6"/>
      <rect x="975" y="451" width="40" height="40" rx="5" fill="#ece3d6"/>
      <rect x="975" y="502" width="40" height="40" rx="5" fill="#e89e72"/>
      <rect x="1026" y="196" width="40" height="40" rx="5" fill="#f0c8ad"/>
      <rect x="1026" y="247" width="40" height="40" rx="5" fill="#e89e72"/>
      <rect x="1026" y="298" width="40" height="40" rx="5" fill="#c8431a"/>
      <rect x="1026" y="349" width="40" height="40" rx="5" fill="#c8431a"/>
      <rect x="1026" y="400" width="40" height="40" rx="5" fill="#f0c8ad"/>
      <rect x="1026" y="451" width="40" height="40" rx="5" fill="#d4622f"/>
      <rect x="1026" y="502" width="40" height="40" rx="5" fill="#c8431a"/>
      <rect x="1077" y="196" width="40" height="40" rx="5" fill="#ece3d6"/>
      <rect x="1077" y="247" width="40" height="40" rx="5" fill="#ece3d6"/>
      <rect x="1077" y="298" width="40" height="40" rx="5" fill="#d4622f"/>
      <rect x="1077" y="349" width="40" height="40" rx="5" fill="#c8431a"/>
      <rect x="1077" y="400" width="40" height="40" rx="5" fill="#f0c8ad"/>
      <rect x="1077" y="451" width="40" height="40" rx="5" fill="#f0c8ad"/>
      <rect x="1077" y="502" width="40" height="40" rx="5" fill="#d4622f"/>
  </g>

  <g transform="translate(720,572)">
    <text x="0" y="15" font-family="'Hanken Grotesk', system-ui, -apple-system, 'Segoe UI', Roboto, Helvetica, Arial, sans-serif" font-size="18" font-weight="500" fill="#938778">Less</text>
    <rect x="52" y="2" width="18" height="18" rx="4" fill="#ece3d6"/>
    <rect x="76" y="2" width="18" height="18" rx="4" fill="#f0c8ad"/>
    <rect x="100" y="2" width="18" height="18" rx="4" fill="#e89e72"/>
    <rect x="124" y="2" width="18" height="18" rx="4" fill="#d4622f"/>
    <rect x="148" y="2" width="18" height="18" rx="4" fill="#c8431a"/>
    <text x="176" y="15" font-family="'Hanken Grotesk', system-ui, -apple-system, 'Segoe UI', Roboto, Helvetica, Arial, sans-serif" font-size="18" font-weight="500" fill="#938778">More</text>
  </g>
</svg>
